<svg fill="#000000" xmlns="http://www.w3.org/2000/svg"  viewBox="0 0 50 50" width="50px" height="50px"><path fill="none" stroke="#000000" stroke-miterlimit="10" stroke-width="2" d="M19.5 9A3.5 3.5 0 1 0 19.5 16 3.5 3.5 0 1 0 19.5 9zM25 23c-4 0-4-1.5-4-2 0-1.5 1.5-3 3-3 .835 0 1.165 0 2 0 1.5 0 3 1.5 3 3C29 21.5 29 23 25 23z"/><path d="M17.5 11A1.5 1.5 0 1 0 17.5 14 1.5 1.5 0 1 0 17.5 11zM25 16A3 2 0 1 0 25 20 3 2 0 1 0 25 16z"/><path fill="none" stroke="#000000" stroke-miterlimit="10" stroke-width="2" d="M30.499 9.001A3.499 3.499 0 1 0 30.499 15.999A3.499 3.499 0 1 0 30.499 9.001Z"/><path d="M28.5 11A1.5 1.5 0 1 0 28.5 14A1.5 1.5 0 1 0 28.5 11Z"/><path fill="none" stroke="#000000" stroke-linecap="round" stroke-miterlimit="10" stroke-width="2" d="M24 23L24 25M26 23L26 25"/><path fill="none" stroke="#000000" stroke-linecap="round" stroke-linejoin="round" stroke-miterlimit="10" stroke-width="2" d="M25,47c9,0,14-5.877,14-11c0-6-1-6.499-1-11c0-5.031,0-10.436,0-11.136c1.724-0.445,3-2.002,3-3.864c0-2.209-1.791-4-4-4c-0.699,0-1.344,0.196-1.909,0.518C35.091,6.518,32,3,25,3"/><path d="M35.46 43.339c-.722.654-1.558 1.242-2.49 1.752l2.47 2.47C35.732 47.854 36.116 48 36.5 48s.768-.146 1.061-.439c.586-.586.586-1.535 0-2.121L35.46 43.339zM38 26.537c0-1.393 0-2.586 0-3.658l3.561 3.561c.586.586.586 1.535 0 2.121C41.268 28.854 40.884 29 40.5 29s-.768-.146-1.061-.439l-1.431-1.431C38.004 26.936 38 26.744 38 26.537zM36.808 10.961c-.134-.547-.33-1.07-.593-1.554C36.398 9.166 36.674 9 37 9c.552 0 1 .448 1 1s-.448 1-1 1C36.932 11 36.872 10.974 36.808 10.961z"/><path fill="none" stroke="#000000" stroke-linecap="round" stroke-linejoin="round" stroke-miterlimit="10" stroke-width="2" d="M25,3c-7,0-10.091,3.518-10.091,3.518C14.344,6.196,13.699,6,13,6c-2.209,0-4,1.791-4,4c0,1.862,1.276,3.419,3,3.864c0,0.7,0,6.105,0,11.136c0,4.501-1,5-1,11c0,5.123,5,11,14,11"/><path d="M12.439 45.44c-.586.586-.586 1.535 0 2.121C12.732 47.854 13.116 48 13.5 48s.768-.146 1.06-.439l2.47-2.47c-.932-.51-1.768-1.098-2.49-1.752L12.439 45.44zM11.992 27.13l-1.431 1.431C10.268 28.854 9.884 29 9.5 29s-.768-.146-1.061-.439c-.586-.586-.586-1.535 0-2.121L12 22.879c0 1.072 0 2.265 0 3.658C12 26.744 11.996 26.936 11.992 27.13zM13 11c-.552 0-1-.448-1-1s.448-1 1-1c.326 0 .602.166.785.407-.263.484-.459 1.007-.593 1.554C13.128 10.974 13.068 11 13 11z"/></svg>